<svg xmlns="http://www.w3.org/2000/svg" viewBox="0 0 100 100">
  <circle cx="50" cy="50" r="45" fill="#ffffff" stroke="#000000" stroke-width="3"/>
  <!-- Simplified soccer ball pattern -->
  <path d="M 50 15 L 65 30 L 50 50 L 35 30 Z" fill="#000000"/>
  <path d="M 50 50 L 65 30 L 80 45 L 70 65 L 55 70 Z" fill="#000000"/>
  <path d="M 50 50 L 35 30 L 20 45 L 30 65 L 45 70 Z" fill="#000000"/>
  <path d="M 50 50 L 55 70 L 50 85 L 45 70 Z" fill="#000000"/>
  <path d="M 50 50 L 70 65 L 65 80 L 50 85 L 45 70 L 55 70 Z" fill="#000000"/>
  <path d="M 50 50 L 30 65 L 35 80 L 50 85 L 45 70 Z" fill="#000000"/>
</svg>

